<?xml version="1.0" encoding="utf-8"?>
<!-- Generator: Adobe Illustrator 19.0.0, SVG Export Plug-In . SVG Version: 6.00 Build 0)  -->
<svg version="1.1" id="layer" xmlns="http://www.w3.org/2000/svg" xmlns:xlink="http://www.w3.org/1999/xlink" x="0px" y="0px"
	 viewBox="-153 -46 652 652" style="enable-background:new -153 -46 652 652;" xml:space="preserve">
<style type="text/css">
	.st0{fill:#000066;}
</style>
<path class="st0" d="M-131.5,326.2v-72.3h71c14.8,0,22.3,7.5,22.3,22.3v50.1h-19v-51.6c0.4-2.1-1.2-4-3.3-4.4h-1.2h-13.8V326h-18.8
	v-55.6h-18.2v55.8H-131.5z M-24.5,326.2h18.8v-13.8v-58.5h-18.8V326.2z M-24.8,242.1h19.4v-4.8v-13.6h-19.4V242.1z M29.6,326.2
	v-55.8h18.2V326h19v-55.8h13.8h1.2c2.1,0.4,3.6,2.3,3.3,4.4v51.6h18.8v-50.1c0-14.8-7.5-22.3-22.3-22.3h-71v72.3H29.6z M136.5,274.6
	v-1.2c0.4-2.1,2.3-3.6,4.4-3.3h15.7h1.2c2.1,0.4,3.6,2.3,3.3,4.4v7.7h-24.4L136.5,274.6z M117.7,303.9c0,14.8,7.5,22.3,22.4,22.4
	H180v-16.5h-38.9h-1.2c-2.1-0.4-3.6-2.3-3.3-4.4v-8.2H180v-21.1c0-14.8-7.5-22.3-22.3-22.3h-17.8c-14.8,0-22.3,7.5-22.3,22.3V303.9
	 M193.3,303.9c0,14.8,7.5,22.3,22.3,22.4h33.8v-16.5h-32.6h-1.2c-2.1-0.4-3.6-2.3-3.3-4.4v-30.7v-1.2c0.4-2.1,2.3-3.6,4.4-3.3h32.6
	v-16.5h-33.8c-14.8,0-22.3,7.5-22.3,22.3V303.9 M279.6,301.8v-1.2c0.4-2.1,2.3-3.6,4.4-3.3h17.8v12.3H284h-1.2
	c-2.1-0.4-3.6-2.3-3.3-4.4V301.8z M320.8,326.2v-50.1c0-14.8-7.5-22.3-22.3-22.3h-34v16.5h33h1.2c2.1,0.4,3.6,2.3,3.3,4.4v7.9h-19
	c-14.8-0.2-22.3,7.1-22.3,21.7c0,14.6,7.5,21.9,22.3,21.9H320.8z M334.8,326.2h32.6c14.8,0,22.3-7.5,22.3-22.3
	c0-11.3-5.8-18-17.3-19.9l-14.8-2.5c-2.7-0.4-4-2.5-4-5.9c0-3.5,1.5-5.2,4.6-5.2h28.2v-16.5h-29.3c-14.8,0-22.3,7.5-22.3,22.3
	c0,11.3,5.8,18,17.3,19.9l14.8,2.5c2.7,0.6,4,2.7,4,6.1s-1.5,5.2-4.6,5.2h-31.5V320V326.2z M401.8,303.9c0,14.8,7.5,22.3,22.4,22.4
	h21.7v-16.5h-20.5h-1.2c-2.1-0.4-3.6-2.3-3.3-4.4v-35.1h23.4v-16.5h-23.6v-22.3h-19V303.9 M465.2,261.1l2.3-6.3v2.1v4.2h1v-7.5h-1.3
	l-2.3,6.3l-2.3-6.3h-1.3v7.5h1v-4.2v-2.1l2.3,6.3H465.2z M458.2,254.4h2.3v-0.8h-5.4v0.8h2.3v6.7h0.8V254.4z"/>
</svg>
