<?xml version="1.0" encoding="UTF-8"?>
<svg xmlns="http://www.w3.org/2000/svg" xmlns:xlink="http://www.w3.org/1999/xlink" width="600" height="600" viewBox="0 0 140 168" version="1.1">
<g id="surface1">
<path style=" stroke:none;fill-rule:nonzero;fill:rgb(29.411765%,75.294118%,67.843137%);fill-opacity:1;" d="M 71.683594 0.601562 L 55.546875 18.644531 L 58.308594 18.644531 L 62.027344 14.480469 L 73.023438 14.480469 L 75.277344 18.640625 L 81.46875 18.640625 Z M 68.808594 6.882812 L 72.152344 12.921875 L 63.425781 12.921875 Z M 68.808594 6.882812 "/>
<path style=" stroke:none;fill-rule:nonzero;fill:rgb(29.411765%,75.294118%,67.843137%);fill-opacity:1;" d="M 42.855469 10.007812 L 37.664062 10.007812 L 45.328125 18.640625 L 52.355469 18.640625 L 45.242188 11.097656 C 55.066406 11.097656 54.550781 5.460938 54.550781 5.460938 C 54.550781 0.902344 46.914062 1.089844 46.914062 1.089844 L 33.585938 1.089844 L 30.417969 18.640625 L 36.089844 18.640625 L 38.992188 2.566406 L 44.527344 2.566406 C 44.527344 2.566406 48.230469 2.496094 48.230469 5.652344 C 48.230469 5.652344 48.308594 10.019531 42.855469 10.007812 "/>
<path style=" stroke:none;fill-rule:nonzero;fill:rgb(29.411765%,75.294118%,67.843137%);fill-opacity:1;" d="M 97.074219 2.828125 L 106.609375 2.828125 L 106.855469 1.089844 L 81.882812 1.089844 L 81.640625 2.832031 L 91.167969 2.832031 L 88.300781 18.640625 L 94.207031 18.640625 L 97.074219 2.828125 "/>
<path style=" stroke:none;fill-rule:nonzero;fill:rgb(29.411765%,75.294118%,67.843137%);fill-opacity:1;" d="M 124.738281 1.085938 C 124.679688 1.085938 124.652344 1.089844 124.652344 1.089844 L 111.324219 1.089844 L 108.152344 18.640625 L 113.828125 18.640625 L 115.140625 11.464844 L 122.910156 11.464844 C 132.742188 11.464844 132.285156 5.460938 132.285156 5.460938 C 132.285156 1.1875 125.574219 1.082031 124.738281 1.085938 Z M 116.730469 2.566406 L 122.265625 2.566406 C 122.265625 2.566406 125.96875 2.496094 125.96875 5.648438 C 125.96875 5.648438 126.042969 9.878906 120.597656 9.871094 L 115.429688 9.871094 Z M 116.730469 2.566406 "/>
<path style=" stroke:none;fill-rule:nonzero;fill:rgb(29.411765%,75.294118%,67.843137%);fill-opacity:1;" d="M 47.371094 58.0625 C 55.210938 49.777344 66.410156 44.078125 78.746094 44.078125 C 102.484375 44.078125 121.726562 62.996094 121.726562 86.617188 C 121.726562 102.363281 113.011719 118.140625 100.269531 125.558594 C 98.476562 131.578125 97.246094 136.132812 96.65625 143.769531 C 121.628906 136.246094 139.542969 113.917969 139.542969 86.617188 C 139.542969 53.203125 112.554688 27.257812 78.972656 27.257812 C 59.808594 27.257812 43.058594 35.855469 31.914062 49.640625 C 31.914062 49.640625 40.753906 52.117188 47.382812 58.019531 "/>
<path style=" stroke:none;fill-rule:nonzero;fill:rgb(29.411765%,75.294118%,67.843137%);fill-opacity:1;" d="M 37.53125 74.980469 C 36.238281 79.0625 35.878906 82.109375 35.878906 86.617188 C 35.878906 111.078125 55.421875 129.726562 79.160156 129.726562 C 77.828125 135.128906 77.101562 139.402344 76.554688 145.601562 C 71.976562 145.550781 67.511719 145.226562 63.226562 144.203125 C 37.042969 137.96875 17.433594 114.691406 17.941406 86.617188 C 18.074219 79.539062 18.839844 73.472656 21.410156 67.117188 C 21.410156 67.117188 30.558594 67.773438 37.53125 74.980469 "/>
<path style=" stroke:none;fill-rule:nonzero;fill:rgb(0%,30.980392%,63.921569%);fill-opacity:1;" d="M 78.132812 73.171875 C 78.132812 73.171875 78.601562 77.550781 78.96875 80.382812 C 78.96875 80.382812 79.003906 81.25 80.226562 81.597656 L 83.554688 82.664062 C 83.554688 82.664062 86 83.421875 85.695312 85.929688 L 85.347656 89.878906 C 85.347656 89.878906 86.640625 87.890625 88.738281 88.003906 C 88.738281 88.003906 91.554688 88.339844 91.5 91.171875 C 91.5 91.171875 91.269531 94.132812 92.222656 94.972656 C 92.222656 94.972656 92.949219 96.453125 97.339844 96.875 C 99.324219 97.023438 100.894531 98.046875 100.894531 98.046875 C 104.175781 100.59375 101.886719 104.738281 101.886719 104.738281 C 101.886719 104.738281 95.480469 118.492188 92.675781 131.582031 C 92.675781 131.582031 86.785156 152.308594 92.246094 167.429688 L 84.546875 167.429688 C 76.222656 142.050781 93.042969 107.085938 93.042969 107.085938 C 93.042969 107.085938 94.933594 103.632812 92.414062 103.179688 C 91.5 103.011719 91.339844 102.984375 90.234375 102.78125 C 90.234375 102.78125 86.046875 102.535156 86.992188 97.386719 C 87.679688 93.617188 84.546875 95.464844 84.546875 95.464844 C 81.191406 97.25 80.957031 94.59375 80.957031 94.59375 C 80.808594 93.222656 80.574219 91.023438 80.574219 91.023438 C 80.425781 89.578125 79.585938 89.464844 79.585938 89.464844 L 75.855469 88.679688 C 73.082031 88.003906 73.019531 85.472656 73.019531 85.472656 L 72.480469 78.941406 C 72.40625 76.023438 69.539062 76.890625 69.539062 76.890625 C 67.859375 77.34375 62.402344 78.144531 62.402344 78.144531 C 62.402344 78.144531 59.226562 78.976562 54.394531 77.859375 C 50.761719 76.867188 46.152344 74.457031 40.789062 69.894531 C 35.601562 65.300781 28.804688 62.792969 28.804688 62.792969 C 14.910156 58.160156 0.679688 64.207031 0.679688 64.207031 L 0.679688 56.222656 C 0.679688 56.222656 12.613281 49.839844 29.414062 54.929688 C 29.414062 54.929688 37.816406 56.867188 46.976562 64.769531 C 46.976562 64.769531 49.980469 67.386719 53.59375 69.210938 C 53.59375 69.210938 57.144531 71.367188 62.628906 70.609375 C 69.308594 69.589844 73.253906 69.429688 73.253906 69.429688 C 73.253906 69.429688 77.859375 68.917969 78.132812 73.171875 "/>
</g>
</svg>
